<svg width="60" height="60" viewBox="0 0 60 60" fill="none" xmlns="http://www.w3.org/2000/svg">
<path d="M44.7461 5H15.2539C9.5999 5 5 9.5999 5 15.2539V44.7461C5 50.4001 9.5999 55 15.2539 55H44.7461C50.4001 55 55 50.4001 55 44.7461V15.2539C55 9.5999 50.4001 5 44.7461 5ZM52.0703 44.7461C52.0703 48.7847 48.7847 52.0703 44.7461 52.0703H15.2539C11.2153 52.0703 7.92969 48.7847 7.92969 44.7461V15.2539C7.92969 11.2153 11.2153 7.92969 15.2539 7.92969H44.7461C48.7847 7.92969 52.0703 11.2153 52.0703 15.2539V44.7461Z" fill="white"/>
<path d="M28.0461 19.9546C28.4729 19.9546 28.8188 19.6086 28.8188 19.1819C28.8188 18.7551 28.4729 18.4092 28.0461 18.4092C27.6194 18.4092 27.2734 18.7551 27.2734 19.1819C27.2734 19.6086 27.6194 19.9546 28.0461 19.9546Z" fill="white"/>
<path d="M32.6819 19.9546C33.1086 19.9546 33.4546 19.6086 33.4546 19.1819C33.4546 18.7551 33.1086 18.4092 32.6819 18.4092C32.2551 18.4092 31.9092 18.7551 31.9092 19.1819C31.9092 19.6086 32.2551 19.9546 32.6819 19.9546Z" fill="white"/>
<path d="M40.4091 21.5C40.1449 21.5037 39.8834 21.5533 39.6364 21.6468V21.5H39.5745C39.184 19.0207 37.6136 16.8855 35.3632 15.7741L36.4141 14.2286C36.5046 14.0942 36.5505 13.9347 36.5454 13.7728C36.5454 13.346 36.1994 13 35.7727 13C35.5155 13.0056 35.2779 13.1389 35.1391 13.3555L33.9259 15.1482C31.6156 14.3492 29.1039 14.3492 26.7936 15.1482L25.5959 13.3477C25.4537 13.1318 25.213 13.0013 24.9545 13C24.5277 13 24.1818 13.346 24.1818 13.7727C24.1868 13.9223 24.2351 14.0673 24.3209 14.19L25.3718 15.7355C23.1031 16.8463 21.5256 19.0016 21.1527 21.5H21.0909V21.6468C20.8438 21.5533 20.5823 21.5037 20.3182 21.5C19.0379 21.5 18 22.5379 18 23.8182V34.6364C18 35.9167 19.0379 36.9545 20.3182 36.9545C20.5818 36.9525 20.8431 36.9054 21.0909 36.8154V39.2727C21.0909 40.1262 21.7828 40.8182 22.6364 40.8182H24.1818V44.6818C24.1818 45.9621 25.2197 47 26.5 47C27.7803 47 28.8182 45.9621 28.8182 44.6818V40.8182H31.9091V44.6818C31.9091 45.9621 32.9469 47 34.2272 47C35.5075 47 36.5454 45.9621 36.5454 44.6818V40.8182H38.0909C38.9444 40.8182 39.6364 40.1262 39.6364 39.2727V36.8154C40.8434 37.2422 42.1679 36.6096 42.5947 35.4025C42.6817 35.1564 42.7265 34.8974 42.7272 34.6363V23.8182C42.7272 22.5379 41.6893 21.5 40.4091 21.5ZM21.0909 34.6364C21.0909 35.0631 20.7449 35.4091 20.3182 35.4091C19.8914 35.4091 19.5455 35.0631 19.5455 34.6364V23.8182C19.5455 23.3914 19.8914 23.0455 20.3182 23.0455C20.745 23.0455 21.0909 23.3914 21.0909 23.8182V34.6364ZM30.3636 16.0909C34.3045 16.0909 37.5499 18.4554 38.0213 21.5H22.7059C23.1772 18.4555 26.4227 16.0909 30.3636 16.0909ZM27.2727 44.6818C27.2727 45.1086 26.9267 45.4545 26.5 45.4545C26.0733 45.4545 25.7273 45.1086 25.7273 44.6818V40.8182H27.2728V44.6818H27.2727ZM34.9999 44.6818C34.9999 45.1086 34.654 45.4545 34.2272 45.4545C33.8005 45.4545 33.4545 45.1086 33.4545 44.6818V40.8182H35V44.6818H34.9999ZM38.0909 39.2727H22.6363V23.0455H38.0908V39.2727H38.0909ZM41.1818 34.6364C41.1818 35.0631 40.8358 35.4091 40.4091 35.4091C39.9823 35.4091 39.6364 35.0631 39.6364 34.6364V23.8182C39.6364 23.3914 39.9823 23.0455 40.4091 23.0455C40.8358 23.0455 41.1818 23.3914 41.1818 23.8182V34.6364Z" fill="white"/>
<path d="M39.8438 22C39.598 22.0034 39.3548 22.0502 39.125 22.1382V22H39.0675C38.7043 19.6665 37.2435 17.6569 35.1503 16.6109L36.1278 15.1564C36.212 15.0299 36.2547 14.8798 36.25 14.7273C36.25 14.3256 35.9282 14 35.5313 14C35.292 14.0053 35.071 14.1307 34.9419 14.3346L33.8134 16.0218C31.6645 15.2698 29.3283 15.2698 27.1793 16.0218L26.0653 14.3273C25.9331 14.1241 25.7091 14.0012 25.4687 14C25.0718 14 24.75 14.3256 24.75 14.7272C24.7546 14.8681 24.7996 15.0045 24.8794 15.12L25.8569 16.5746C23.7466 17.6201 22.2793 19.6486 21.9325 22H21.875V22.1382C21.6451 22.0502 21.4019 22.0034 21.1562 22C19.9654 22 19 22.9768 19 24.1818V34.3636C19 35.5686 19.9654 36.5454 21.1562 36.5454C21.4015 36.5435 21.6445 36.4992 21.875 36.4145V38.7272C21.875 39.5306 22.5186 40.1818 23.3125 40.1818H24.75V43.8182C24.75 45.0232 25.7154 46 26.9063 46C28.0971 46 29.0625 45.0232 29.0625 43.8182V40.1818H31.9375V43.8182C31.9375 45.0232 32.9029 46 34.0937 46C35.2846 46 36.25 45.0232 36.25 43.8182V40.1818H37.6875C38.4814 40.1818 39.125 39.5306 39.125 38.7272V36.4145C40.2478 36.8162 41.4797 36.2208 41.8767 35.0847C41.9576 34.8531 41.9993 34.6093 42 34.3636V24.1818C42 22.9768 41.0346 22 39.8438 22ZM21.875 34.3636C21.875 34.7653 21.5532 35.0909 21.1562 35.0909C20.7593 35.0909 20.4375 34.7652 20.4375 34.3636V24.1818C20.4375 23.7801 20.7593 23.4546 21.1562 23.4546C21.5532 23.4546 21.875 23.7802 21.875 24.1818V34.3636ZM30.5 16.9091C34.1656 16.9091 37.1843 19.1345 37.6228 22H23.3772C23.8156 19.1346 26.8344 16.9091 30.5 16.9091ZM27.625 43.8182C27.625 44.2199 27.3032 44.5454 26.9063 44.5454C26.5093 44.5454 26.1875 44.2198 26.1875 43.8182V40.1818H27.6251V43.8182H27.625ZM34.8125 43.8182C34.8125 44.2199 34.4907 44.5454 34.0937 44.5454C33.6968 44.5454 33.375 44.2198 33.375 43.8182V40.1818H34.8125V43.8182H34.8125ZM37.6875 38.7272H23.3124V23.4546H37.6874V38.7272H37.6875ZM40.5625 34.3636C40.5625 34.7653 40.2407 35.0909 39.8438 35.0909C39.4468 35.0909 39.125 34.7652 39.125 34.3636V24.1818C39.125 23.7801 39.4468 23.4546 39.8438 23.4546C40.2407 23.4546 40.5625 23.7802 40.5625 24.1818V34.3636Z" fill="white"/>
<circle cx="30.5" cy="30" r="2" fill="white"/>
</svg>
