<svg width="16" height="21" viewBox="0 0 16 21" fill="none" xmlns="http://www.w3.org/2000/svg">
<path d="M13.8192 3.35742H5.09197C4.51352 3.35805 3.95893 3.58401 3.5499 3.98574C3.14086 4.38747 2.91079 4.93215 2.91016 5.50028V18.3574C2.91079 18.9256 3.14086 19.4702 3.5499 19.872C3.95893 20.2737 4.51352 20.4997 5.09197 20.5003H13.8192C14.3977 20.4997 14.9523 20.2737 15.3613 19.872C15.7704 19.4702 16.0004 18.9256 16.0011 18.3574V5.50028C16.0004 4.93215 15.7704 4.38747 15.3613 3.98574C14.9523 3.58401 14.3977 3.35805 13.8192 3.35742ZM14.5465 18.3574C14.5463 18.5468 14.4697 18.7284 14.3333 18.8623C14.197 18.9962 14.0121 19.0715 13.8192 19.0717H5.09197C4.89914 19.0715 4.71426 18.9962 4.57791 18.8623C4.44155 18.7284 4.36488 18.5468 4.3647 18.3574V5.50028C4.36488 5.31089 4.44155 5.12931 4.57791 4.99539C4.71426 4.86147 4.89914 4.78616 5.09197 4.78599H13.8192C14.0121 4.78616 14.197 4.86147 14.3333 4.99539C14.4697 5.12931 14.5463 5.31089 14.5465 5.50028V18.3574Z" fill="white"/>
<path d="M11.6364 1.92857C11.8292 1.92857 12.0142 1.85332 12.1506 1.71936C12.287 1.58541 12.3636 1.40373 12.3636 1.21429C12.3636 1.02485 12.287 0.843164 12.1506 0.709209C12.0142 0.575255 11.8292 0.5 11.6364 0.5H3.63636C2.67229 0.501115 1.74803 0.877748 1.06632 1.54728C0.384616 2.21681 0.0011356 3.12457 0 4.07143V16.2143C0 16.4037 0.0766233 16.5854 0.213013 16.7194C0.349404 16.8533 0.534388 16.9286 0.727273 16.9286C0.920157 16.9286 1.10514 16.8533 1.24153 16.7194C1.37792 16.5854 1.45455 16.4037 1.45455 16.2143V4.07143C1.45518 3.5033 1.68525 2.95862 2.09429 2.55689C2.50332 2.15516 3.0579 1.9292 3.63636 1.92857H11.6364Z" fill="white"/>
</svg>
