<svg width="24" height="24" viewBox="0 0 24 24" fill="none" xmlns="http://www.w3.org/2000/svg">
<g id="Icon/Hide">
<g id="Group">
<path id="Vector" d="M5.47118 14.4726C5.76412 14.7329 6.23896 14.7329 6.5318 14.4725C6.82464 14.2121 6.82457 13.79 6.53162 13.5296L4.81069 12.0004L7.41218 9.68787C8.98247 8.29199 11.2117 7.72324 13.345 8.1228C13.7503 8.19871 14.148 7.96818 14.2334 7.60789C14.3188 7.24761 14.0595 6.89402 13.6542 6.81811C11.0299 6.32661 8.28412 7.02711 6.35152 8.74505L3.21966 11.5291C2.92675 11.7894 2.92678 12.2116 3.21976 12.4719L5.47118 14.4726Z" fill="#636F7D"/>
<path id="Vector_2" d="M20.7799 11.5284L18.5285 9.52771C18.2356 9.2674 17.7607 9.26746 17.4679 9.52787C17.1751 9.78827 17.1751 10.2104 17.4681 10.4707L19.189 11.9999L16.5875 14.3125C15.0172 15.7084 12.788 16.2771 10.6547 15.8775C10.2494 15.8016 9.85165 16.0322 9.76626 16.3924C9.68087 16.7527 9.94021 17.1063 10.3455 17.1822C12.9698 17.6737 15.7156 16.9732 17.6482 15.2553L20.78 12.4713C21.073 12.2109 21.0729 11.7887 20.7799 11.5284Z" fill="#636F7D"/>
<path id="Vector_3" d="M8.25 12.0003C8.25 12.3685 8.58576 12.667 8.99996 12.667C9.41415 12.667 9.74991 12.3685 9.74991 12.0003C9.74991 10.8958 10.7573 10.0003 11.9998 10.0003C12.414 10.0003 12.7498 9.70184 12.7498 9.33365C12.7498 8.96546 12.414 8.66699 11.9998 8.66699C9.92896 8.66696 8.25 10.1594 8.25 12.0003Z" fill="#636F7D"/>
<path id="Vector_4" d="M14.2499 12.0002C14.2499 13.1047 13.2424 14.0002 12 14.0002C11.5858 14.0002 11.25 14.2987 11.25 14.6668C11.25 15.035 11.5858 15.3335 12 15.3335C14.0708 15.3335 15.7498 13.841 15.7498 12.0002C15.7498 11.632 15.414 11.3335 14.9999 11.3335C14.5856 11.3335 14.2499 11.632 14.2499 12.0002Z" fill="#636F7D"/>
</g>
<path id="Vector 367 (Stroke)" fill-rule="evenodd" clip-rule="evenodd" d="M12.8218 7.3302C12.9156 6.95514 13.2957 6.72711 13.6707 6.82087C14.6945 7.07682 15.5103 7.34408 16.2736 7.76044C17.0399 8.17838 17.7181 8.72714 18.4959 9.50499C18.7693 9.77836 18.7693 10.2216 18.4959 10.4949C18.2226 10.7683 17.7793 10.7683 17.506 10.4949C16.7838 9.77279 16.212 9.32155 15.6033 8.9895C14.9916 8.65586 14.3074 8.42312 13.3312 8.17907C12.9561 8.08531 12.7281 7.70525 12.8218 7.3302Z" fill="#636F7D"/>
<path id="Vector 369" d="M10.5 16.5C8.5 16 7.5 15.5 6 14" stroke="#636F7D" stroke-width="1.4" stroke-linecap="round"/>
</g>
</svg>
