<svg width="120" height="120" viewBox="0 0 120 120" fill="none" xmlns="http://www.w3.org/2000/svg">
<rect opacity="0.1" width="120" height="120" rx="10" fill="#F9D003"/>
<path d="M58.9918 68.0861H50.4768V67.1636C50.4768 65.905 52.2704 64.6394 54.1695 63.2994C56.9464 61.3398 60.4026 58.901 60.4026 54.8749C60.4026 51.123 57.4844 48.2939 53.6148 48.2939C49.9309 48.2939 47.1529 50.7927 47.1529 54.1061C47.1529 56.0199 48.4086 56.2265 48.9484 56.2265C50.2098 56.2265 50.8906 55.3474 50.8906 54.5201C50.8906 52.2785 52.5606 51.9438 53.5558 51.9438C55.9864 51.9438 56.6349 53.8232 56.6349 54.9338C56.6349 57.0867 54.3457 58.7356 51.922 60.4812C49.3304 62.3479 46.6504 64.2781 46.6504 67.1636V70.0283C46.6504 71.0319 47.5942 71.7063 48.4758 71.7063H58.992C59.8688 71.7063 60.6095 70.8707 60.6095 69.8818C60.6093 68.8914 59.8838 68.0861 58.9918 68.0861Z" fill="#F9B403"/>
<path d="M71.7006 62.9452H70.9848V58.1526C70.9848 57.2132 70.1751 56.5048 69.1017 56.5048C68.0097 56.5048 67.2171 57.1979 67.2171 58.1526V62.9452H63.8162L69.9717 50.7941C69.984 50.7695 69.9955 50.7442 70.0057 50.7186C70.0708 50.5544 70.1575 50.3012 70.1575 49.9993C70.1575 48.9937 69.1802 48.293 68.3031 48.293C67.5633 48.293 66.9173 48.7015 66.5769 49.3815L59.1744 63.9804C59.0224 64.2479 58.9453 64.5628 58.9453 64.9173C58.9453 65.9062 59.6508 66.6241 60.6228 66.6241H67.2171V70.0275C67.2171 70.9841 68.0273 71.7055 69.1017 71.7055C70.1753 71.7055 70.9848 70.9842 70.9848 70.0275V66.6241H71.7006C72.6089 66.6241 73.348 65.7922 73.348 64.7697C73.3482 63.7295 72.6399 62.9452 71.7006 62.9452Z" fill="#F9B403"/>
<path d="M59.9998 30C43.4578 30 30 43.458 30 60C30 76.542 43.4578 90 59.9998 90C76.542 90 90 76.542 90 60C90 43.458 76.542 30 59.9998 30ZM59.9998 84.5455C46.4655 84.5455 35.4545 73.5344 35.4545 60C35.4545 46.4656 46.4655 35.4545 59.9998 35.4545C73.5344 35.4545 84.5455 46.4656 84.5455 60C84.5455 73.5344 73.5344 84.5455 59.9998 84.5455Z" fill="#F9B403"/>
</svg>
