<svg width="120" height="120" viewBox="0 0 120 120" fill="none" xmlns="http://www.w3.org/2000/svg">
<rect opacity="0.1" width="120" height="120" rx="10" fill="#F9D003"/>
<path d="M69.0011 67.0024C58.372 67.0024 53.7473 70.7183 54.0055 79.0034H83.9967C84.2549 70.7183 79.6301 67.0024 69.0011 67.0024ZM69.0011 61.002C84.1576 61.002 91.5622 68.5117 89.7247 82.3972C89.5273 83.889 88.2553 85.0038 86.7504 85.0038H51.2517C49.7469 85.0038 48.4748 83.889 48.2774 82.3972C46.44 68.5117 53.8446 61.002 69.0011 61.002Z" fill="#F9B403"/>
<path d="M37 78.75H46.5" stroke="#F9B403" stroke-width="2" stroke-linecap="round"/>
<path d="M41.75 83.5V74" stroke="#F9B403" stroke-width="2" stroke-linecap="round"/>
<path d="M69.0009 58.0019C62.373 58.0019 57 52.6289 57 46.0009C57 39.373 62.373 34 69.0009 34C75.6289 34 81.0019 39.373 81.0019 46.0009C81.0019 52.6289 75.6289 58.0019 69.0009 58.0019ZM69.0009 52.0014C72.3149 52.0014 75.0014 49.3149 75.0014 46.0009C75.0014 42.687 72.3149 40.0005 69.0009 40.0005C65.687 40.0005 63.0005 42.687 63.0005 46.0009C63.0005 49.3149 65.687 52.0014 69.0009 52.0014Z" fill="#F9B403"/>
<path d="M41.9988 70.0029C43.6557 70.0029 44.999 71.3461 44.999 73.0031C44.999 74.6601 43.6557 76.0034 41.9988 76.0034H33.1661C31.6612 76.0034 30.3892 74.8886 30.1918 73.3967C28.8837 63.5116 34.3161 58.002 44.999 58.002C46.162 58.002 47.2597 58.0634 48.2928 58.1878C49.9379 58.3858 51.111 59.88 50.9129 61.5251C50.7149 63.1702 49.2207 64.3433 47.5756 64.1452C46.7889 64.0505 45.9298 64.0024 44.999 64.0024C38.9145 64.0024 36.2151 65.7756 36.0059 70.0029H41.9988Z" fill="#F9B403"/>
<path d="M45.0007 55.0014C40.0298 55.0014 36 50.9717 36 46.0007C36 41.0298 40.0298 37 45.0007 37C49.9717 37 54.0014 41.0298 54.0014 46.0007C54.0014 50.9717 49.9717 55.0014 45.0007 55.0014ZM45.0007 49.0009C46.6577 49.0009 48.0009 47.6577 48.0009 46.0007C48.0009 44.3437 46.6577 43.0005 45.0007 43.0005C43.3437 43.0005 42.0005 44.3437 42.0005 46.0007C42.0005 47.6577 43.3437 49.0009 45.0007 49.0009Z" fill="#F9B403"/>
</svg>
