<svg width="20" height="20" viewBox="0 0 20 20" fill="none" xmlns="http://www.w3.org/2000/svg">
<path d="M19.7099 4.38506C19.5582 4.49152 19.3702 4.53372 19.1872 4.50238C19.0042 4.47104 18.8413 4.36872 18.7341 4.21793C18.0681 3.27516 17.253 2.4458 16.3205 1.76202C16.1817 1.64875 16.092 1.48681 16.0698 1.30964C16.0477 1.13247 16.0948 0.95361 16.2014 0.810002C16.3081 0.666393 16.4662 0.569007 16.643 0.537958C16.8198 0.506909 17.0018 0.54457 17.1515 0.643161C18.2057 1.4191 19.1264 2.35981 19.8779 3.4287C19.9806 3.5785 20.0205 3.76222 19.9891 3.9408C19.9577 4.11939 19.8576 4.27877 19.7099 4.38506Z" fill="#636F7D"/>
<path d="M3.80875 0.78756C3.86344 0.861284 3.90296 0.945014 3.92505 1.03395C3.94714 1.12289 3.95137 1.21529 3.9375 1.30586C3.92362 1.39642 3.89191 1.48338 3.84418 1.56174C3.79645 1.64009 3.73364 1.70832 3.65935 1.7625C2.72682 2.44628 1.91172 3.27564 1.24568 4.21841C1.13419 4.35606 0.974232 4.4464 0.79824 4.47112C0.622248 4.49584 0.443388 4.45309 0.297918 4.35154C0.152449 4.24998 0.0512542 4.09722 0.0148491 3.92422C-0.0215561 3.75122 0.00955201 3.57093 0.101867 3.41989C0.85339 2.351 1.77415 1.41029 2.82834 0.634356C2.90276 0.580213 2.9872 0.541218 3.07681 0.519611C3.16643 0.498003 3.25945 0.494207 3.35055 0.508442C3.44164 0.522677 3.52901 0.554662 3.60764 0.60256C3.68627 0.650459 3.75461 0.713328 3.80875 0.78756Z" fill="#636F7D"/>
<path d="M9.9902 1.08984C8.15435 1.08984 6.35974 1.63126 4.83335 2.6456C3.30696 3.65995 2.11737 5.10166 1.41503 6.78838C0.712696 8.47511 0.52917 10.3311 0.887666 12.1215C1.24616 13.912 2.13058 15.5565 3.42904 16.8471C4.72751 18.1376 6.3817 19.0163 8.18239 19.3719C9.98307 19.7275 11.8494 19.544 13.5452 18.8448C15.241 18.1455 16.6902 16.9618 17.7095 15.4435C18.7288 13.9251 19.2723 12.1402 19.2714 10.3146C19.2677 7.86837 18.2885 5.52346 16.5486 3.79414C14.8087 2.06483 12.4502 1.0923 9.9902 1.08984ZM9.9902 18.1512C8.43156 18.1512 6.90792 17.6916 5.61196 16.8305C4.31599 15.9694 3.30591 14.7455 2.70945 13.3136C2.11298 11.8816 1.95692 10.3059 2.261 8.78575C2.56507 7.26559 3.31563 5.86924 4.41775 4.77327C5.51988 3.67729 6.92407 2.93093 8.45276 2.62855C9.98145 2.32617 11.566 2.48136 13.006 3.0745C14.446 3.66763 15.6768 4.67208 16.5427 5.9608C17.4086 7.24953 17.8708 8.76466 17.8708 10.3146C17.8696 12.3926 17.0389 14.3852 15.5613 15.8546C14.0836 17.324 12.0799 18.15 9.9902 18.1512Z" fill="#636F7D"/>
<path d="M13.7834 7.52765L10.4827 10.8099C10.3514 10.9403 10.1734 11.0136 9.98786 11.0136C9.80228 11.0136 9.6243 10.9403 9.49299 10.8099L6.19228 7.52765C6.06041 7.39652 5.98633 7.21867 5.98633 7.03322C5.98633 6.84777 6.06041 6.66992 6.19228 6.53879C6.32415 6.40765 6.503 6.33398 6.68949 6.33398C6.87597 6.33398 7.05483 6.40765 7.18669 6.53879L9.98786 9.32432L12.789 6.53879C12.9209 6.40765 13.0998 6.33399 13.2862 6.33399C13.4727 6.33399 13.6516 6.40765 13.7834 6.53879C13.9153 6.66992 13.9894 6.84777 13.9894 7.03322C13.9894 7.21867 13.9153 7.39652 13.7834 7.52765Z" fill="#636F7D"/>
</svg>
