<svg width="60" height="60" viewBox="0 0 60 60" fill="none" xmlns="http://www.w3.org/2000/svg">
<path d="M44.7461 5H15.2539C9.5999 5 5 9.5999 5 15.2539V44.7461C5 50.4001 9.5999 55 15.2539 55H44.7461C50.4001 55 55 50.4001 55 44.7461V15.2539C55 9.5999 50.4001 5 44.7461 5ZM52.0703 44.7461C52.0703 48.7847 48.7847 52.0703 44.7461 52.0703H15.2539C11.2153 52.0703 7.92969 48.7847 7.92969 44.7461V15.2539C7.92969 11.2153 11.2153 7.92969 15.2539 7.92969H44.7461C48.7847 7.92969 52.0703 11.2153 52.0703 15.2539V44.7461Z" fill="white"/>
<path fill-rule="evenodd" clip-rule="evenodd" d="M34.0786 15.2194C34.2504 15.3238 34.4003 15.4616 34.5198 15.625C34.6393 15.7884 34.726 15.9743 34.775 16.1719C34.824 16.3695 34.8344 16.575 34.8054 16.7766C34.7765 16.9783 34.7089 17.1722 34.6064 17.3472L18.8751 44.2423C18.7727 44.4173 18.6375 44.5701 18.4772 44.6918C18.3169 44.8136 18.1347 44.9021 17.9409 44.952C17.7471 45.002 17.5455 45.0126 17.3476 44.9832C17.1498 44.9538 16.9596 44.885 16.7879 44.7807C16.6161 44.6764 16.4662 44.5386 16.3468 44.3752C16.2273 44.2118 16.1405 44.0261 16.0915 43.8285C16.0424 43.631 16.032 43.4256 16.0609 43.2239C16.0897 43.0223 16.1572 42.8284 16.2596 42.6534L31.9909 15.7583C32.0933 15.5832 32.2284 15.4303 32.3887 15.3084C32.5491 15.1865 32.7314 15.098 32.9252 15.048C33.1191 14.9979 33.3208 14.9873 33.5187 15.0167C33.7166 15.0461 33.9069 15.115 34.0786 15.2194Z" fill="white"/>
<path fill-rule="evenodd" clip-rule="evenodd" d="M13 37.2401C13 36.8286 13.1604 36.4339 13.4459 36.1429C13.7314 35.852 14.1186 35.6885 14.5224 35.6885H45.4776C45.8814 35.6885 46.2686 35.852 46.5541 36.1429C46.8396 36.4339 47 36.8286 47 37.2401C47 37.6516 46.8396 38.0463 46.5541 38.3373C46.2686 38.6283 45.8814 38.7918 45.4776 38.7918H14.5224C14.1186 38.7918 13.7314 38.6283 13.4459 38.3373C13.1604 38.0463 13 37.6516 13 37.2401Z" fill="white"/>
<path fill-rule="evenodd" clip-rule="evenodd" d="M26.4487 15.2071C26.6219 15.1053 26.813 15.0392 27.0113 15.0127C27.2095 14.9862 27.411 14.9997 27.6041 15.0526C27.7972 15.1054 27.9782 15.1965 28.1368 15.3206C28.2953 15.4448 28.4284 15.5995 28.5282 15.7761L43.7521 42.6711C43.8521 42.8477 43.9169 43.0427 43.943 43.2448C43.969 43.4469 43.9558 43.6523 43.9039 43.8492C43.8521 44.0462 43.7627 44.2307 43.6409 44.3924C43.5191 44.5541 43.3672 44.6898 43.1939 44.7917C43.0206 44.8936 42.8294 44.9597 42.6311 44.9862C42.4327 45.0128 42.2312 44.9992 42.038 44.9464C41.8448 44.8936 41.6637 44.8025 41.505 44.6783C41.3464 44.5542 41.2133 44.3994 41.1133 44.2228L25.8894 17.3277C25.7894 17.1511 25.7245 16.9561 25.6985 16.7539C25.6725 16.5517 25.6858 16.3462 25.7377 16.1493C25.7897 15.9523 25.8792 15.7677 26.0012 15.6061C26.1232 15.4444 26.2752 15.3088 26.4487 15.2071Z" fill="white"/>
<path d="M26.1945 38.792H15.0303V40.8608H26.1945V38.792Z" fill="#131822"/>
<path d="M39.9278 42.1672L34.3457 32.313L32.5878 33.3474L38.1699 43.2016L39.9278 42.1672Z" fill="#131822"/>
<path d="M30.3137 28.6923L36.0303 18.9185L34.2867 17.8591L28.5702 27.6329L30.3137 28.6923Z" fill="#131822"/>
</svg>
