<svg width="16" height="16" viewBox="0 0 16 16" fill="none" xmlns="http://www.w3.org/2000/svg">
<path d="M3.43703 14.5708H12.5604L12.5609 14.5703H3.43652L3.43703 14.5708Z" fill="#C42126"/>
<path d="M7.99804 0C7.8409 0 7.68501 0.00567475 7.53027 0.0145247H8.4659C8.31102 0.00567475 8.15517 0 7.99804 0Z" fill="#C42126"/>
<path d="M10.3638 2.92601H14.1838C13.7301 2.37363 13.2027 1.88466 12.6185 1.4707H9.75C9.98736 1.8883 10.1915 2.38106 10.3638 2.92601Z" fill="#E7E7E7"/>
<path d="M9.75086 1.47032H12.6194C11.4335 0.629954 10.0098 0.103688 8.46799 0.0146484H8.22168C8.94737 0.105985 9.2807 0.64306 9.75086 1.47032Z" fill="#DC3027"/>
<path d="M15.7015 5.83714C15.5593 5.32986 15.3685 4.84315 15.1341 4.38184H10.7393C10.8283 4.84909 10.8986 5.33715 10.9506 5.83714H15.7015Z" fill="#E7E7E7"/>
<path d="M10.4925 4.38132H15.1344C14.8699 3.86103 14.5521 3.3728 14.1848 2.92578H10.1299C10.2729 3.37838 10.3943 3.86661 10.4925 4.38132Z" fill="#DC3027"/>
<path d="M11.1191 8.74837H15.964C15.987 8.5022 16 8.25271 16 8.00059C16 7.76198 15.9875 7.52641 15.967 7.29297H11.1203C11.1361 7.77701 11.1358 8.2646 11.1191 8.74837Z" fill="#E7E7E7"/>
<path d="M15.9675 7.29222C15.9236 6.79237 15.8336 6.30606 15.7021 5.83691H10.7471C10.7968 6.31349 10.8297 6.80108 10.8457 7.29222H15.9675Z" fill="#DC3027"/>
<path d="M10.6562 11.6587H15.1137C15.3514 11.1979 15.5452 10.7108 15.6905 10.2031H10.8718C10.8187 10.7039 10.7467 11.1918 10.6562 11.6587Z" fill="#E7E7E7"/>
<path d="M15.689 10.2034C15.8233 9.73434 15.9165 9.24803 15.9629 8.74805H10.9669C10.9498 9.23955 10.916 9.72701 10.8652 10.2034H15.689Z" fill="#DC3027"/>
<path d="M12.5619 14.5705C13.1546 14.1582 13.6894 13.6688 14.1504 13.1152H10.3969C10.2214 13.6624 10.0131 14.1544 9.77148 14.5705H12.5619Z" fill="#E7E7E7"/>
<path d="M10.2568 13.1147H14.1515C14.5232 12.6682 14.8458 12.18 15.1142 11.6592H10.624C10.5244 12.1743 10.4017 12.6627 10.2568 13.1147Z" fill="#DC3027"/>
<path d="M7.71159 15.9939C7.69541 15.9934 7.67927 15.9927 7.66309 15.9922C7.67927 15.9927 7.69545 15.9934 7.71159 15.9939Z" fill="#DC3027"/>
<path d="M8.00195 15.9997C9.69799 15.9997 11.2695 15.4703 12.5637 14.5703H9.66844C9.15457 15.4556 8.81554 15.9997 8.00195 15.9997Z" fill="#DC3027"/>
<path d="M7.99887 15.9998C7.90172 15.9998 7.80522 15.9976 7.70898 15.9941C7.80623 15.9974 7.90284 15.9998 7.99887 15.9998Z" fill="#C42126"/>
<path d="M10.0155 1.4707H3.38088C2.79655 1.88466 2.26931 2.3736 1.81543 2.92601H10.6292C10.4569 2.38106 10.2529 1.8883 10.0155 1.4707Z" fill="#F3F4F5"/>
<path d="M3.38086 1.47032H10.0155C9.54523 0.64306 8.94712 0.105985 8.22142 0.0146484H7.53211C5.9903 0.103688 4.56658 0.629954 3.38086 1.47032Z" fill="#E73625"/>
<path d="M0.298828 5.83714H11.2035C11.1514 5.33705 11.0812 4.84909 10.9922 4.38184H0.866236C0.631781 4.84318 0.441069 5.32986 0.298828 5.83714Z" fill="#F3F4F5"/>
<path d="M1.81474 2.92578C1.44767 3.3728 1.12962 3.861 0.865234 4.38132H10.991C10.8929 3.86671 10.7715 3.37851 10.6285 2.92578C10.6285 2.92578 1.81474 2.92578 1.81474 2.92578Z" fill="#E73625"/>
<path d="M0 8.00049C0 8.25261 0.0131398 8.5021 0.0360077 8.74827H11.3008C11.3174 8.26447 11.3177 7.77701 11.3019 7.29297H0.0329676C0.012498 7.52631 0 7.76188 0 8.00049Z" fill="#F3F4F5"/>
<path d="M0.0332031 7.29222H11.302C11.286 6.80098 11.253 6.31353 11.2033 5.83691H0.298464C0.166965 6.30616 0.0769122 6.79237 0.0332031 7.29222Z" fill="#E73625"/>
<path d="M11.1988 10.2031H0.30957C0.454851 10.7109 0.648738 11.1979 0.886335 11.6587H10.9833C11.0738 11.1919 11.1456 10.704 11.1988 10.2031Z" fill="#F3F4F5"/>
<path d="M0.309973 10.2034H11.1992C11.2499 9.72701 11.2838 9.23942 11.3009 8.74805H0.0361328C0.0824766 9.24813 0.17584 9.73434 0.309973 10.2034Z" fill="#E73625"/>
<path d="M3.43803 14.5705H9.99133C10.233 14.1543 10.4414 13.6624 10.6167 13.1152H1.84961C2.31055 13.6688 2.84522 14.1582 3.43803 14.5705Z" fill="#F3F4F5"/>
<path d="M0.888672 11.6592C1.15711 12.18 1.47969 12.6682 1.85132 13.1147H10.6184C10.7632 12.6628 10.8859 12.1743 10.9855 11.6592H0.888672Z" fill="#E73625"/>
<path d="M7.66356 15.9923C7.67974 15.9928 7.69589 15.9935 7.71207 15.994C7.80833 15.9974 7.90484 15.9997 8.00195 15.9997C8.81557 15.9997 9.47897 15.4557 9.99295 14.5703H3.44043C4.6479 15.4101 6.09726 15.927 7.66356 15.9923Z" fill="#E73625"/>
<path d="M7.8347 0.00390625C3.73513 0.0873048 0.393783 3.25263 0.0341797 7.27897H7.83484V0.00390625H7.8347Z" fill="#283991"/>
<path d="M1.60271 4.5332L1.72458 4.90848H2.11945L1.80001 5.14054L1.92202 5.51608L1.60271 5.28389L1.28351 5.51608L1.40528 5.14054L1.08594 4.90848H1.48081L1.60271 4.5332Z" fill="#EFEFEF"/>
<path d="M1.60271 5.8584L1.72458 6.23391H2.11945L1.80001 6.46597L1.92202 6.84152L1.60271 6.60932L1.28351 6.84152L1.40528 6.46597L1.08594 6.23391H1.48081L1.60271 5.8584Z" fill="#EFEFEF"/>
<path d="M2.92902 2.54395L3.05092 2.91936H3.44566L3.12632 3.15155L3.24822 3.52683L2.92902 3.2949L2.60968 3.52683L2.73158 3.15155L2.41211 2.91936H2.80698L2.92902 2.54395Z" fill="#EFEFEF"/>
<path d="M2.92902 3.87012L3.05092 4.24553H3.44566L3.12632 4.47745L3.24822 4.853L2.92902 4.62108L2.60968 4.853L2.73158 4.47745L2.41211 4.24553H2.80698L2.92902 3.87012Z" fill="#EFEFEF"/>
<path d="M2.92902 5.19531L3.05092 5.57086H3.44566L3.12632 5.80265L3.24822 6.17819L2.92902 5.94604L2.60968 6.17819L2.73158 5.80265L2.41211 5.57086H2.80698L2.92902 5.19531Z" fill="#EFEFEF"/>
<path d="M0.596229 6.17881L0.474222 5.80326L0.793562 5.57134H0.39893L0.39008 5.54395C0.346742 5.67798 0.307593 5.81363 0.271484 5.9508L0.277058 5.94665L0.596229 6.17881Z" fill="#EFEFEF"/>
<path d="M1.28363 4.19001L1.60283 3.95785L1.92217 4.19001L1.80016 3.81447L2.1195 3.58231H1.72463L1.60273 3.20703L1.48082 3.58231H1.33531C1.30828 3.62325 1.28214 3.66442 1.25586 3.70597L1.40543 3.81447L1.28363 4.19001Z" fill="#EFEFEF"/>
<path d="M2.92899 1.96829L3.24819 2.20021L3.12628 1.82493L3.44549 1.59277H3.21749C3.02383 1.73755 2.83701 1.89077 2.65751 2.05243L2.60938 2.20021L2.92899 1.96829Z" fill="#EFEFEF"/>
<path d="M3.93555 1.53788L4.25489 1.30573L4.57409 1.53788L4.45219 1.16234L4.77139 0.930415H4.37666L4.36011 0.879883C4.22634 0.948216 4.09397 1.01932 3.9646 1.09498L4.05732 1.1623L3.93555 1.53788Z" fill="#EFEFEF"/>
<path d="M4.25516 1.88086L4.37706 2.25603H4.7718L4.45246 2.48819L4.57436 2.86374L4.25516 2.63155L3.93582 2.86374L4.05772 2.48819L3.73828 2.25603H4.13312L4.25516 1.88086Z" fill="#EFEFEF"/>
<path d="M4.25516 3.20703L4.37706 3.58221H4.7718L4.45246 3.81436L4.57436 4.18991L4.25516 3.95772L3.93582 4.18991L4.05772 3.81436L3.73828 3.58221H4.13312L4.25516 3.20703Z" fill="#EFEFEF"/>
<path d="M4.25516 4.5332L4.37706 4.90848H4.7718L4.45246 5.14054L4.57436 5.51608L4.25516 5.28389L3.93582 5.51608L4.05772 5.14054L3.73828 4.90848H4.13312L4.25516 4.5332Z" fill="#EFEFEF"/>
<path d="M4.25516 5.8584L4.37706 6.23391H4.7718L4.45246 6.46597L4.57436 6.84152L4.25516 6.60932L3.93582 6.84152L4.05772 6.46597L3.73828 6.23391H4.13312L4.25516 5.8584Z" fill="#EFEFEF"/>
<path d="M5.58035 1.21777L5.70226 1.59319H6.09699L5.77779 1.82538L5.89956 2.20065L5.58035 1.96873L5.26091 2.20065L5.38292 1.82538L5.06348 1.59319H5.45831L5.58035 1.21777Z" fill="#EFEFEF"/>
<path d="M5.58035 2.54395L5.70226 2.91936H6.09699L5.77779 3.15155L5.89956 3.52683L5.58035 3.2949L5.26091 3.52683L5.38292 3.15155L5.06348 2.91936H5.45831L5.58035 2.54395Z" fill="#EFEFEF"/>
<path d="M5.58035 3.87012L5.70226 4.24553H6.09699L5.77779 4.47745L5.89956 4.853L5.58035 4.62108L5.26091 4.853L5.38292 4.47745L5.06348 4.24553H5.45831L5.58035 3.87012Z" fill="#EFEFEF"/>
<path d="M5.58035 5.19531L5.70226 5.57086H6.09699L5.77779 5.80265L5.89956 6.17819L5.58035 5.94604L5.26091 6.17819L5.38292 5.80265L5.06348 5.57086H5.45831L5.58035 5.19531Z" fill="#EFEFEF"/>
<path d="M6.9075 0.554688L7.02941 0.930099H7.42414L7.1048 1.16202L7.22671 1.53757L6.9075 1.30538L6.58806 1.53757L6.71007 1.16202L6.39062 0.930099H6.78536L6.9075 0.554688Z" fill="#EFEFEF"/>
<path d="M6.9075 1.88086L7.02941 2.25603H7.42414L7.1048 2.48819L7.22671 2.86374L6.9075 2.63155L6.58806 2.86374L6.71007 2.48819L6.39062 2.25603H6.78536L6.9075 1.88086Z" fill="#EFEFEF"/>
<path d="M6.9075 3.20703L7.02941 3.58221H7.42414L7.1048 3.81436L7.22671 4.18991L6.9075 3.95772L6.58806 4.18991L6.71007 3.81436L6.39062 3.58221H6.78536L6.9075 3.20703Z" fill="#EFEFEF"/>
<path d="M6.9075 4.5332L7.02941 4.90848H7.42414L7.1048 5.14054L7.22671 5.51608L6.9075 5.28389L6.58806 5.51608L6.71007 5.14054L6.39062 4.90848H6.78536L6.9075 4.5332Z" fill="#EFEFEF"/>
<path d="M6.9075 5.8584L7.02941 6.23391H7.42414L7.1048 6.46597L7.22671 6.84152L6.9075 6.60932L6.58806 6.84152L6.71007 6.46597L6.39062 6.23391H6.78536L6.9075 5.8584Z" fill="#EFEFEF"/>
</svg>
