<svg width="60" height="60" viewBox="0 0 60 60" fill="none" xmlns="http://www.w3.org/2000/svg">
<path d="M44.7461 5H15.2539C9.5999 5 5 9.5999 5 15.2539V44.7461C5 50.4001 9.5999 55 15.2539 55H44.7461C50.4001 55 55 50.4001 55 44.7461V15.2539C55 9.5999 50.4001 5 44.7461 5ZM52.0703 44.7461C52.0703 48.7847 48.7847 52.0703 44.7461 52.0703H15.2539C11.2153 52.0703 7.92969 48.7847 7.92969 44.7461V15.2539C7.92969 11.2153 11.2153 7.92969 15.2539 7.92969H44.7461C48.7847 7.92969 52.0703 11.2153 52.0703 15.2539V44.7461Z" fill="white"/>
<path d="M43.4037 27.2854L20.4881 13.4249C19.5514 12.8584 18.433 12.8584 17.496 13.4249C17.4884 13.4296 17.4814 13.4348 17.4738 13.4394C17.4604 13.4477 17.447 13.4563 17.4339 13.4654C16.5353 14.0389 16 15.0321 16 16.1395V43.8605C16 44.9938 16.5593 46.0086 17.496 46.5751C17.9645 46.8584 18.4783 47 18.9921 47C19.5059 47 20.0199 46.8584 20.4881 46.5751L43.404 32.7146C44.3407 32.1481 44.9 31.1333 44.9 30C44.9 28.8667 44.3407 27.8519 43.4037 27.2854ZM17.9256 44.0963C17.9118 44.0234 17.9034 43.9453 17.9034 43.8605V16.1395C17.9034 15.9904 17.9274 15.8604 17.9658 15.7473L30.9174 29.8999L17.9256 44.0963ZM20.7036 15.8575L35.5501 24.8374L32.2359 28.4592L20.7036 15.8575ZM20.2928 44.391L32.2356 31.3403L35.6682 35.0912L20.2928 44.391ZM42.4522 30.9878L37.3653 34.0645L33.5541 29.8999L37.2472 25.8641L42.4522 29.0122C42.9434 29.3095 42.9966 29.8021 42.9966 30C42.9966 30.1979 42.9434 30.6905 42.4522 30.9878Z" fill="white"/>
<path d="M41.6539 27.6048L21.0378 15.3749C20.1951 14.875 19.1888 14.875 18.3459 15.3749C18.339 15.379 18.3328 15.3836 18.3259 15.3877C18.3138 15.3951 18.3018 15.4026 18.29 15.4106C17.4816 15.9167 17 16.7931 17 17.7702V42.2298C17 43.2298 17.5032 44.1252 18.3459 44.6251C18.7674 44.875 19.2296 45 19.6918 45C20.1541 45 20.6165 44.875 21.0378 44.6251L41.6541 32.3952C42.4968 31.8954 43 31 43 30C43 29 42.4968 28.1046 41.6539 27.6048ZM18.7324 42.4379C18.7199 42.3736 18.7124 42.3047 18.7124 42.2298V17.7702C18.7124 17.6385 18.734 17.5239 18.7685 17.4241L30.4205 29.9117L18.7324 42.4379ZM21.2316 17.5214L34.5883 25.4448L31.6067 28.6404L21.2316 17.5214ZM20.862 42.6979L31.6064 31.1826L34.6946 34.4923L20.862 42.6979ZM40.7978 30.8716L36.2214 33.5863L32.7926 29.9117L36.1151 26.3507L40.7978 29.1284C41.2397 29.3907 41.2876 29.8254 41.2876 30C41.2876 30.1746 41.2397 30.6093 40.7978 30.8716Z" fill="white"/>
</svg>
