<svg width="60" height="60" viewBox="0 0 60 60" fill="none" xmlns="http://www.w3.org/2000/svg">
<path d="M30.4453 20.7914C34.748 20.7889 38.2384 17.3027 38.2384 13C33.9345 13 30.4453 16.488 30.4453 20.7914Z" fill="white"/>
<path d="M37.6693 31.0624C37.6693 28.3008 39.6625 25.9548 42.4475 25.0691C40.6838 22.8846 38.1232 21.5 35.2621 21.5C33.4095 21.5 31.4668 22.571 31.4668 22.571C30.9055 22.8807 29.987 22.8807 29.4247 22.571C29.4247 22.571 27.4825 21.5 25.63 21.5C20.312 21.5 15.9983 26.2561 16 32.1249C16 40.3341 19.771 46.9997 24.4264 46.9997C26.655 46.9997 29.386 45.7103 29.386 45.7103C29.97 45.434 30.9245 45.434 31.5068 45.7103C31.5068 45.7103 34.2365 46.9997 36.4652 46.9997C40.0636 46.9997 43.1236 43.0124 44.3327 37.4123C40.6051 37.1611 37.6693 34.416 37.6693 31.0624ZM36.4657 44.1663C35.2621 44.1663 33.4206 43.4803 32.7181 43.148C31.8809 42.7518 31.0219 42.669 30.446 42.669C29.8731 42.669 29.0129 42.7518 28.1774 43.148C27.3363 43.5411 25.5709 44.1663 24.4268 44.1663C21.7858 44.1663 18.8334 39.017 18.8334 32.1249C18.8334 29.9914 19.5738 27.9994 20.9197 26.5149C22.1951 25.1078 23.8679 24.333 25.6304 24.333C26.5547 24.333 27.7983 24.9084 28.0584 25.0525C28.9331 25.5341 29.84 25.6365 30.446 25.6365C31.0521 25.6365 31.9586 25.5341 32.8341 25.0525C33.3428 24.7784 34.4652 24.333 35.2621 24.333C36.0517 24.333 36.8197 24.4882 37.5405 24.7843C35.8413 26.4529 34.8358 28.6803 34.8358 31.0624C34.8358 34.762 37.268 38.0043 40.7763 39.4569C39.685 42.2657 38.0182 44.1663 36.4657 44.1663Z" fill="white"/>
<path d="M44.7461 5H15.2539C9.5999 5 5 9.5999 5 15.2539V44.7461C5 50.4001 9.5999 55 15.2539 55H44.7461C50.4001 55 55 50.4001 55 44.7461V15.2539C55 9.5999 50.4001 5 44.7461 5ZM52.0703 44.7461C52.0703 48.7847 48.7847 52.0703 44.7461 52.0703H15.2539C11.2153 52.0703 7.92969 48.7847 7.92969 44.7461V15.2539C7.92969 11.2153 11.2153 7.92969 15.2539 7.92969H44.7461C48.7847 7.92969 52.0703 11.2153 52.0703 15.2539V44.7461Z" fill="white"/>
</svg>
