<svg width="24" height="25" viewBox="0 0 24 25" fill="none" xmlns="http://www.w3.org/2000/svg">
<path d="M5.47118 14.9725C5.76412 15.2328 6.23896 15.2327 6.5318 14.9723C6.82464 14.7119 6.82457 14.2898 6.53162 14.0295L4.81069 12.5003L7.41218 10.1877C8.98247 8.79187 11.2117 8.22312 13.345 8.62268C13.7503 8.69859 14.148 8.46805 14.2334 8.10777C14.3188 7.74749 14.0595 7.3939 13.6542 7.31799C11.0299 6.82649 8.28412 7.52699 6.35152 9.24493L3.21966 12.0289C2.92675 12.2893 2.92678 12.7115 3.21976 12.9718L5.47118 14.9725Z" fill="#636F7D"/>
<path d="M20.7799 12.0282L18.5285 10.0276C18.2356 9.76728 17.7607 9.76734 17.4679 10.0277C17.1751 10.2882 17.1751 10.7102 17.4681 10.9706L19.189 12.4998L16.5875 14.8123C15.0172 16.2083 12.788 16.777 10.6547 16.3774C10.2494 16.3015 9.85165 16.532 9.76626 16.8923C9.68087 17.2526 9.94021 17.6062 10.3455 17.6821C12.9698 18.1736 15.7156 17.4731 17.6482 15.7552L20.78 12.9712C21.073 12.7107 21.0729 12.2886 20.7799 12.0282Z" fill="#636F7D"/>
<path d="M8.25 12.5001C8.25 12.8683 8.58576 13.1667 8.99996 13.1667C9.41415 13.1667 9.74991 12.8683 9.74991 12.5001C9.74991 11.3956 10.7573 10.5001 11.9998 10.5001C12.414 10.5001 12.7498 10.2016 12.7498 9.8334C12.7498 9.46522 12.414 9.16675 11.9998 9.16675C9.92896 9.16672 8.25 10.6592 8.25 12.5001Z" fill="#636F7D"/>
<path d="M14.2499 12.5001C14.2499 13.6045 13.2424 14.5001 12 14.5001C11.5858 14.5001 11.25 14.7985 11.25 15.1667C11.25 15.5349 11.5858 15.8334 12 15.8334C14.0708 15.8334 15.7498 14.3409 15.7498 12.5C15.7498 12.1318 15.414 11.8334 14.9999 11.8334C14.5856 11.8334 14.2499 12.1319 14.2499 12.5001Z" fill="#636F7D"/>
<path d="M20.7796 4.69526C20.4867 4.43491 20.0118 4.43491 19.719 4.69526L3.21966 19.3619C2.92678 19.6223 2.92678 20.0444 3.21966 20.3047C3.51253 20.5651 3.9874 20.5651 4.28028 20.3047L20.7796 5.63807C21.0725 5.37773 21.0725 4.9556 20.7796 4.69526Z" fill="#636F7D"/>
</svg>
