<svg width="22" height="22" viewBox="0 0 22 22" fill="none" xmlns="http://www.w3.org/2000/svg">
<path d="M1 21L6.94595 15.054M6.94595 15.054L2.09263 10.2007C1.76817 9.87626 1.70348 9.36255 2.05158 9.06357C2.91926 8.31831 4.6684 7.62671 7.43431 8.38708C7.79954 8.48749 8.19622 8.39837 8.46405 8.13054L11.2703 5.32433C11.5688 5.0258 11.5688 4.54178 11.2703 4.24325V4.24325C10.9718 3.94471 10.9718 3.4607 11.2703 3.16217L12.7253 1.70711C13.1159 1.31658 13.749 1.31658 14.1396 1.7071L20.2929 7.86045C20.6834 8.25097 20.6834 8.88413 20.2929 9.27466L18.8379 10.7297C18.5393 11.0283 18.0553 11.0283 17.7568 10.7297V10.7297C17.4582 10.4312 16.9742 10.4312 16.6757 10.7297L13.8548 13.5506C13.5947 13.8108 13.5014 14.1917 13.5872 14.5494C14.0016 16.276 14.2464 18.9963 12.915 20.122C12.6095 20.3803 12.168 20.2761 11.8851 19.9932L6.94595 15.054ZM6.40541 10.7297C7.4865 11.2703 10.2973 11.8108 12.8919 9.64863" stroke="#636F7D" stroke-width="1.5" stroke-linecap="round"/>
</svg>
