<svg width="120" height="120" viewBox="0 0 120 120" fill="none" xmlns="http://www.w3.org/2000/svg">
<rect opacity="0.1" width="120" height="120" rx="10" fill="#F9D003"/>
<path d="M65.4556 51.8178H43.6374C42.9141 51.8178 42.2204 51.5305 41.709 51.019C41.1975 50.5076 40.9102 49.8139 40.9102 49.0906C40.9102 48.3672 41.1975 47.6735 41.709 47.1621C42.2204 46.6506 42.9141 46.3633 43.6374 46.3633H65.4556C66.1789 46.3633 66.8726 46.6506 67.3841 47.1621C67.8955 47.6735 68.1829 48.3672 68.1829 49.0906C68.1829 49.8139 67.8955 50.5076 67.3841 51.019C66.8726 51.5305 66.1789 51.8178 65.4556 51.8178Z" fill="#F9B403"/>
<path d="M65.4556 62.727H43.6374C42.9141 62.727 42.2204 62.4397 41.709 61.9282C41.1975 61.4167 40.9102 60.7231 40.9102 59.9997C40.9102 59.2764 41.1975 58.5827 41.709 58.0713C42.2204 57.5598 42.9141 57.2725 43.6374 57.2725H65.4556C66.1789 57.2725 66.8726 57.5598 67.3841 58.0713C67.8955 58.5827 68.1829 59.2764 68.1829 59.9997C68.1829 60.7231 67.8955 61.4167 67.3841 61.9282C66.8726 62.4397 66.1789 62.727 65.4556 62.727Z" fill="#F9B403"/>
<path d="M65.4556 73.6362H43.6374C42.9141 73.6362 42.2204 73.3489 41.709 72.8374C41.1975 72.3259 40.9102 71.6322 40.9102 70.9089C40.9102 70.1856 41.1975 69.4919 41.709 68.9804C42.2204 68.469 42.9141 68.1816 43.6374 68.1816H65.4556C66.1789 68.1816 66.8726 68.469 67.3841 68.9804C67.8955 69.4919 68.1829 70.1856 68.1829 70.9089C68.1829 71.6322 67.8955 72.3259 67.3841 72.8374C66.8726 73.3489 66.1789 73.6362 65.4556 73.6362Z" fill="#F9B403"/>
<path d="M81.8182 90H43.6364C41.8456 90 40.0724 89.6473 38.418 88.962C36.7635 88.2767 35.2603 87.2723 33.994 86.006C32.7277 84.7397 31.7233 83.2365 31.038 81.5821C30.3527 79.9276 30 78.1544 30 76.3636V43.6364C30 40.0198 31.4367 36.5513 33.994 33.994C36.5513 31.4367 40.0198 30 43.6364 30H65.4545C67.2453 30 69.0185 30.3527 70.673 31.038C72.3274 31.7233 73.8307 32.7277 75.0969 33.994C76.3632 35.2603 77.3676 36.7635 78.0529 38.418C78.7382 40.0724 79.0909 41.8456 79.0909 43.6364V81.8182C79.0909 82.5415 79.3782 83.2352 79.8897 83.7467C80.4012 84.2581 81.0949 84.5455 81.8182 84.5455C82.5415 84.5455 83.2352 84.2581 83.7467 83.7467C84.2581 83.2352 84.5455 82.5415 84.5455 81.8182V54.5455C84.5455 53.8221 84.8328 53.1284 85.3443 52.617C85.8557 52.1055 86.5494 51.8182 87.2727 51.8182C87.996 51.8182 88.6897 52.1055 89.2012 52.617C89.7127 53.1284 90 53.8221 90 54.5455V81.8182C90 83.9881 89.138 86.0692 87.6036 87.6036C86.0692 89.138 83.9881 90 81.8182 90ZM43.6364 35.4545C41.4664 35.4545 39.3853 36.3166 37.8509 37.8509C36.3166 39.3853 35.4545 41.4664 35.4545 43.6364V76.3636C35.4545 78.5336 36.3166 80.6147 37.8509 82.1491C39.3853 83.6834 41.4664 84.5455 43.6364 84.5455H74.1C73.7918 83.6693 73.635 82.747 73.6364 81.8182V43.6364C73.6364 41.4664 72.7744 39.3853 71.24 37.8509C69.7056 36.3166 67.6245 35.4545 65.4545 35.4545H43.6364Z" fill="#F9B403"/>
</svg>
