<svg width="24" height="24" viewBox="0 0 24 24" fill="none" xmlns="http://www.w3.org/2000/svg">
<path fill-rule="evenodd" clip-rule="evenodd" d="M3.91388 2H7.74163C8.79863 2 9.6555 2.89543 9.6555 3.99999V7.99997C9.6555 9.10453 8.79863 9.99996 7.74163 9.99996H3.91388C2.85687 9.99996 2 9.10454 2 7.99997V3.99999C2 2.89543 2.85687 2 3.91388 2ZM3.91388 3.49999C3.64962 3.49999 3.43541 3.72385 3.43541 3.99999V7.99997C3.43541 8.27611 3.64962 8.49997 3.91388 8.49997H7.74163C8.00588 8.49997 8.2201 8.27611 8.2201 7.99997V3.99999C8.2201 3.72385 8.00588 3.49999 7.74163 3.49999H3.91388Z" fill="white"/>
<rect x="11.4736" y="4" width="10.5263" height="1.49999" rx="0.749996" fill="white"/>
<rect x="11.4736" y="6.5" width="6.69856" height="1.49999" rx="0.749996" fill="white"/>
<path fill-rule="evenodd" clip-rule="evenodd" d="M3.91388 14H7.74163C8.79863 14 9.6555 14.8954 9.6555 16V20C9.6555 21.1045 8.79863 22 7.74163 22H3.91388C2.85687 22 2 21.1045 2 20V16C2 14.8954 2.85687 14 3.91388 14ZM3.91388 15.5C3.64962 15.5 3.43541 15.7238 3.43541 16V20C3.43541 20.2761 3.64962 20.5 3.91388 20.5H7.74163C8.00588 20.5 8.2201 20.2761 8.2201 20V16C8.2201 15.7238 8.00588 15.5 7.74163 15.5H3.91388Z" fill="white"/>
<rect x="11.4736" y="16" width="10.5263" height="1.49999" rx="0.749996" fill="white"/>
<rect x="11.4736" y="18.5" width="6.69856" height="1.49999" rx="0.749996" fill="white"/>
</svg>
