<svg width="134" height="37" viewBox="0 0 134 37" fill="none" xmlns="http://www.w3.org/2000/svg">
<g filter="url(#filter0_d_305_4458)">
<path d="M5 18.7971C7.14876 18.3031 11.1488 17.3151 11.9421 19.2913C12.7355 21.2674 17.8926 19.7852 18.8843 18.3031C19.876 16.8211 21.562 15.4377 24.3388 17.8091C27.8099 20.7733 29.2975 24.2316 32.7686 24.2316C36.2397 24.2316 43.6777 20.7734 44.6694 17.8091C45.6612 14.8448 47.1488 8.91645 48.1405 10.3986C48.9339 11.5842 50.6198 14.8449 52.1074 15.339C53.595 15.833 55.6726 13.5395 56.5702 12.8688C58.5537 11.3867 59.0496 11.8807 61.5289 10.8926C65 9.90458 65.1983 13.5604 67.9752 12.3747C71.4463 10.8926 75.9091 9.4105 77.3967 9.90458C78.8843 10.3987 79.3802 11.3867 82.3554 9.90457C85.3306 8.42246 94.7521 8.91648 96.2397 11.3867C97.7273 13.8569 98.2231 14.8449 98.2231 15.833C98.2231 16.8211 98.5207 17.0186 99.7107 17.8091C101.198 18.7972 102.686 17.8092 103.182 16.3271C103.678 14.8449 107.149 4.96422 112.107 6.94037C117.066 8.91651 118.058 4.96422 121.033 3.97615C124.008 2.98807 125 2 125 2" stroke="url(#paint0_linear_305_4458)" stroke-width="2" stroke-linecap="round"/>
</g>
<defs>
<filter id="filter0_d_305_4458" x="0" y="0" width="134" height="36.2314" filterUnits="userSpaceOnUse" color-interpolation-filters="sRGB">
<feFlood flood-opacity="0" result="BackgroundImageFix"/>
<feColorMatrix in="SourceAlpha" type="matrix" values="0 0 0 0 0 0 0 0 0 0 0 0 0 0 0 0 0 0 127 0" result="hardAlpha"/>
<feOffset dx="2" dy="5"/>
<feGaussianBlur stdDeviation="3"/>
<feComposite in2="hardAlpha" operator="out"/>
<feColorMatrix type="matrix" values="0 0 0 0 0.219608 0 0 0 0 0.705882 0 0 0 0 0.517647 0 0 0 1 0"/>
<feBlend mode="normal" in2="BackgroundImageFix" result="effect1_dropShadow_305_4458"/>
<feBlend mode="normal" in="SourceGraphic" in2="effect1_dropShadow_305_4458" result="shape"/>
</filter>
<linearGradient id="paint0_linear_305_4458" x1="4.99999" y1="-67.7402" x2="6.91223" y2="25.9259" gradientUnits="userSpaceOnUse">
<stop stop-color="#EDE61B"/>
<stop offset="0.894316" stop-color="#29AF8C"/>
<stop offset="1" stop-color="#24AE8F"/>
</linearGradient>
</defs>
</svg>
