<svg width="24" height="24" viewBox="0 0 24 24" fill="none" xmlns="http://www.w3.org/2000/svg">
<path d="M19.6198 10.4032L6.14008 2.24994C5.58908 1.91669 4.93117 1.91669 4.38003 2.24994C4.37551 2.25269 4.37143 2.25574 4.36692 2.25848C4.35905 2.26337 4.35119 2.2684 4.34347 2.27374C3.8149 2.61111 3.5 3.19537 3.5 3.84677V20.1532C3.5 20.8199 3.82903 21.4168 4.38003 21.7501C4.6556 21.9167 4.95783 22 5.26005 22C5.56228 22 5.86465 21.9167 6.14008 21.7501L19.62 13.5968C20.171 13.2636 20.5 12.6667 20.5 12C20.5 11.3333 20.171 10.7364 19.6198 10.4032ZM4.63273 20.2919C4.62457 20.2491 4.61962 20.2031 4.61962 20.1532V3.84677C4.61962 3.75903 4.63375 3.68259 4.65633 3.61606L12.2749 11.9411L4.63273 20.2919ZM6.26679 3.68091L15.0001 8.9632L13.0505 11.0936L6.26679 3.68091ZM6.02516 20.4653L13.0504 12.7884L15.0695 14.9948L6.02516 20.4653ZM19.0601 12.5811L16.0678 14.3909L13.826 11.9411L15.9984 9.56714L19.0601 11.4189C19.3491 11.5938 19.3804 11.8836 19.3804 12C19.3804 12.1164 19.3491 12.4062 19.0601 12.5811Z" fill="white"/>
</svg>
