<svg width="20" height="20" viewBox="0 0 20 20" fill="none" xmlns="http://www.w3.org/2000/svg">
<path d="M15.8984 0H4.10156C1.83996 0 0 1.83996 0 4.10156V15.8984C0 18.16 1.83996 20 4.10156 20H15.8984C18.16 20 20 18.16 20 15.8984V4.10156C20 1.83996 18.16 0 15.8984 0ZM18.8281 15.8984C18.8281 17.5139 17.5139 18.8281 15.8984 18.8281H4.10156C2.48613 18.8281 1.17188 17.5139 1.17188 15.8984V4.10156C1.17188 2.48613 2.48613 1.17188 4.10156 1.17188H15.8984C17.5139 1.17188 18.8281 2.48613 18.8281 4.10156V15.8984Z" fill="white"/>
<path d="M11.9393 4.82518C11.8718 4.57322 11.7102 4.3626 11.4843 4.23221C11.018 3.96299 10.4196 4.12326 10.1503 4.58967L10 4.84998L9.84969 4.58963C9.58043 4.12334 8.98203 3.96299 8.5157 4.23217H8.51566C8.04934 4.50143 7.88902 5.09983 8.15824 5.56619L8.87234 6.80307L6.23742 11.3669H4.31641C3.77793 11.3669 3.33984 11.805 3.33984 12.3435C3.33984 12.882 3.77793 13.3201 4.31641 13.3201H11.7328L10.6052 11.3669H8.4927L11.8417 5.56623C11.9721 5.34033 12.0068 5.07713 11.9393 4.82518Z" fill="white"/>
<path d="M15.6837 11.3675H13.7627L11.5788 7.58496L10.4512 9.53809L13.842 15.4111C13.9724 15.637 14.1829 15.7986 14.435 15.8661C14.5191 15.8887 14.6045 15.8998 14.6893 15.8998C14.8585 15.8998 15.0255 15.8555 15.1761 15.7686C15.6424 15.4993 15.8027 14.9009 15.5334 14.4346L14.8903 13.3207H15.6837C16.2221 13.3207 16.6602 12.8826 16.6602 12.3441C16.6602 11.8056 16.2221 11.3675 15.6837 11.3675Z" fill="white"/>
<path d="M4.65864 14.1016L4.46657 14.4342C4.19735 14.9005 4.3577 15.499 4.82403 15.7682C4.97743 15.8568 5.14508 15.8989 5.31067 15.8988C5.6484 15.8988 5.97735 15.7237 6.15805 15.4107L6.91391 14.1016H4.65864Z" fill="white"/>
</svg>
