<svg width="19" height="25" viewBox="0 0 19 25" fill="none" xmlns="http://www.w3.org/2000/svg">
<path d="M11.1538 24.0002L8.01432 22.4304C7.67554 22.261 7.46154 21.9147 7.46154 21.536V17.1302C7.46154 16.8072 7.30557 16.5041 7.04278 16.3164L1.41876 12.2993C1.15597 12.1116 1 11.8085 1 11.4855V8.38477C1 7.83248 1.44772 7.38477 2 7.38477H16.6154C17.1677 7.38477 17.6154 7.83248 17.6154 8.38477V12.3644C17.6154 12.7117 17.4352 13.0341 17.1395 13.2161L12.0913 16.3227C11.7955 16.5047 11.6154 16.8271 11.6154 17.1743V20.3078" stroke="#636F7D" stroke-width="1.5" stroke-linecap="round" stroke-linejoin="round"/>
<circle cx="8.15422" cy="4.38371" r="0.692308" fill="#636F7D"/>
<circle cx="10.9228" cy="3.46184" r="0.692308" fill="#636F7D"/>
<circle cx="13.6923" cy="0.692308" r="0.692308" fill="#636F7D"/>
<circle cx="14.6152" cy="4.38371" r="0.692308" fill="#636F7D"/>
</svg>
