<svg width="24" height="24" viewBox="0 0 24 24" fill="none" xmlns="http://www.w3.org/2000/svg">
<g opacity="0.7">
<path d="M20.4605 16.1514L18.7587 14.1291C18.7289 14.0932 18.7127 14.0495 18.7127 14.0046V8.29494C18.7326 6.69776 18.0722 5.15472 16.8678 3.98468C15.6634 2.81465 14.0072 2.10705 12.2415 2.00812C11.3202 1.96529 10.3989 2.09221 9.53365 2.38115C8.66843 2.67008 7.8774 3.11499 7.20873 3.68877C6.54007 4.26256 6.00775 4.95321 5.6442 5.71869C5.28065 6.48416 5.09348 7.30843 5.09407 8.1413V14.2163C5.09407 14.2613 5.07793 14.305 5.04808 14.3409L3.53949 16.1514C3.26959 16.419 3.09155 16.7515 3.02701 17.1087C2.96246 17.4659 3.01419 17.8323 3.17591 18.1634C3.33762 18.4946 3.60236 18.7762 3.93798 18.9741C4.27359 19.172 4.66563 19.2776 5.06648 19.2782H18.9197C19.3217 19.2801 19.7156 19.1762 20.0533 18.9792C20.391 18.7823 20.6579 18.5008 20.8213 18.1692C20.9847 17.8375 21.0376 17.4701 20.9735 17.1118C20.9095 16.7535 20.7312 16.4197 20.4605 16.1514ZM19.5406 17.6463C19.4886 17.758 19.4008 17.8532 19.2886 17.9198C19.1764 17.9864 19.0448 18.0212 18.9105 18.02H5.06648C4.93439 18.0178 4.80579 17.9814 4.69595 17.9151C4.58611 17.8489 4.49966 17.7555 4.44686 17.6462C4.39406 17.5368 4.37714 17.4161 4.39811 17.2984C4.41908 17.1806 4.47706 17.0708 4.56515 16.9819L4.61574 16.9279L6.16572 15.0842C6.36826 14.832 6.47623 14.5279 6.47388 14.2163V8.1413C6.47387 7.49753 6.61462 6.86009 6.88805 6.26552C7.16148 5.67096 7.56222 5.13098 8.06728 4.67653C8.57234 4.22209 9.17179 3.86212 9.83126 3.61728C10.4907 3.37243 11.1972 3.24752 11.9103 3.24971H12.1771C13.589 3.33367 14.9112 3.90401 15.8707 4.84292C16.8302 5.78183 17.3537 7.01759 17.3329 8.29494V14.0253C17.3329 14.343 17.4476 14.6521 17.6595 14.9057L19.3796 16.9487L19.4256 16.9943C19.5181 17.0826 19.5794 17.1937 19.6015 17.3136C19.6236 17.4334 19.6056 17.5565 19.5498 17.667L19.5406 17.6463Z" fill="white"/>
<path d="M14.7157 20.8896C14.3705 21.239 13.9475 21.5185 13.4743 21.7099C13.0011 21.9013 12.4884 22.0003 11.9699 22.0003C11.4514 22.0003 10.9387 21.9013 10.4655 21.7099C9.99228 21.5185 9.56923 21.239 9.22407 20.8896C9.11366 20.7654 9.06016 20.6077 9.07457 20.4489C9.08898 20.2902 9.1702 20.1425 9.30154 20.0361C9.43288 19.9298 9.60435 19.8729 9.7807 19.8772C9.95706 19.8815 10.1249 19.9466 10.2497 20.0591C10.4655 20.278 10.7301 20.4531 11.0261 20.5731C11.3222 20.693 11.6431 20.755 11.9676 20.755C12.2921 20.755 12.6129 20.693 12.909 20.5731C13.2051 20.4531 13.4697 20.278 13.6854 20.0591C13.8102 19.9466 13.9781 19.8815 14.1544 19.8772C14.3308 19.8729 14.5023 19.9298 14.6336 20.0361C14.7649 20.1425 14.8462 20.2902 14.8606 20.4489C14.875 20.6077 14.8215 20.7654 14.7111 20.8896H14.7157Z" fill="white"/>
</g>
</svg>
